<?xml version="1.0" standalone="no"?>
<!DOCTYPE svg PUBLIC "-//W3C//DTD SVG 20010904//EN"
 "http://www.w3.org/TR/2001/REC-SVG-20010904/DTD/svg10.dtd">
<svg version="1.0" xmlns="http://www.w3.org/2000/svg"
 width="700.000000pt" height="700.000000pt" viewBox="0 0 700.000000 700.000000"
 preserveAspectRatio="xMidYMid meet">
<metadata>
Created by potrace 1.11, written by Peter Selinger 2001-2013
</metadata>
<g transform="translate(0.000000,700.000000) scale(0.100000,-0.100000)"
fill="#000000" stroke="none">
<path d="M0 3500 l0 -3500 3500 0 3500 0 0 3500 0 3500 -3500 0 -3500 0 0
-3500z m827 3174 c109 -69 204 -131 210 -138 10 -9 6 -25 -17 -75 -17 -35 -40
-76 -51 -93 -12 -16 -20 -31 -18 -32 16 -14 785 -557 806 -569 6 -4 54 27 110
70 122 96 323 230 468 314 107 61 405 209 422 209 4 0 89 -80 187 -179 l178
-178 -118 -64 c-250 -132 -429 -245 -647 -407 -122 -91 -127 -96 -110 -113 10
-9 398 -286 863 -614 465 -329 967 -685 1115 -790 423 -301 1849 -1311 1960
-1389 55 -38 102 -71 104 -73 5 -4 459 -2276 456 -2281 -2 -2 -513 99 -1136
223 -855 170 -1138 229 -1150 243 -9 9 -257 357 -551 772 -1264 1786 -2292
3237 -2308 3257 -17 22 -18 22 -97 -85 -158 -212 -309 -455 -419 -674 l-46
-91 -179 179 c-98 98 -179 183 -179 189 0 5 33 78 73 160 125 256 259 477 418
686 l88 117 -287 406 c-158 223 -290 406 -293 406 -4 0 -37 -18 -75 -39 -122
-70 -101 -83 -258 160 l-136 213 6 50 c22 186 118 298 292 340 107 26 105 27
319 -110z m5349 -2179 c31 -533 60 -974 64 -978 4 -4 108 109 231 252 123 143
227 260 230 260 7 1 24 -2423 18 -2473 -2 -16 -48 227 -103 540 -54 313 -102
574 -106 579 -5 6 -400 289 -879 630 l-870 620 1 280 c0 154 3 329 7 390 l6
110 159 -295 c168 -312 196 -363 201 -358 2 2 55 208 119 458 64 250 120 463
124 472 4 11 67 -174 177 -529 93 -300 170 -542 172 -537 4 13 373 1656 374
1669 5 41 25 -247 75 -1090z m-3521 -1960 c94 -3 191 -8 217 -12 l46 -5 713
-1027 712 -1028 561 -97 c309 -53 566 -99 571 -101 13 -6 -2121 6 -2492 14
l-292 6 453 295 c300 195 448 297 437 301 -9 3 -395 82 -858 175 -463 93 -839
172 -835 175 4 3 306 61 672 129 366 67 666 123 668 125 3 3 -28 10 -937 226
l-603 144 83 7 c82 7 702 32 1122 45 114 3 204 9 200 13 -4 4 -176 63 -380
131 -222 74 -366 126 -355 130 9 3 115 16 235 29 119 13 217 26 217 29 -1 3
-82 71 -181 151 -99 80 -183 149 -186 153 -2 4 6 6 19 3 12 -3 100 -8 193 -11z"/>
<path d="M1891 5126 l-104 -105 33 -38 c18 -21 622 -704 1342 -1519 l1308
-1481 451 -172 c247 -95 452 -172 454 -170 1 2 -75 206 -170 453 l-172 450
-124 110 c-68 60 -740 654 -1494 1319 -753 666 -1381 1221 -1395 1233 l-26 24
-103 -104z"/>
</g>
</svg>
